<svg width="24" height="24" viewBox="0 0 24 24" fill="none" xmlns="http://www.w3.org/2000/svg">
    <path fill-rule="evenodd" clip-rule="evenodd" d="M12 10.5a1.5 1.5 0 1 0 0 3 1.5 1.5 0 0 0 0-3zM8.5 12a3.5 3.5 0 1 1 7 0 3.5 3.5 0 0 1-7 0z" fill="#637381"/>
    <path fill-rule="evenodd" clip-rule="evenodd" d="M4.411 12a29.395 29.395 0 0 0 2.253 1.96c.854.665 1.801 1.311 2.748 1.787.959.482 1.843.753 2.588.753.745 0 1.63-.27 2.588-.753.947-.476 1.894-1.122 2.748-1.786A28.597 28.597 0 0 0 19.589 12a28.621 28.621 0 0 0-2.253-1.96c-.854-.665-1.801-1.311-2.748-1.787C13.629 7.77 12.745 7.5 12 7.5c-.745 0-1.63.27-2.588.753-.947.476-1.894 1.122-2.748 1.786A28.602 28.602 0 0 0 4.411 12zM21 12c.731-.682.73-.683.73-.683l-.005-.006-.013-.014-.048-.05a28.148 28.148 0 0 0-.837-.83 30.588 30.588 0 0 0-2.263-1.956c-.913-.711-1.974-1.44-3.077-1.995-1.092-.55-2.3-.966-3.487-.966-1.188 0-2.395.417-3.487.966C7.41 7.021 6.35 7.75 5.436 8.461a30.58 30.58 0 0 0-3.1 2.786l-.048.05-.013.014-.004.005H2.27c0 .001-.001.002.73.684l-.731-.682a1 1 0 0 0 0 1.364L3 12l-.731.682.002.002.004.005.013.014.048.05.18.185a30.594 30.594 0 0 0 2.92 2.601c.914.711 1.974 1.44 3.077 1.995 1.092.549 2.3.966 3.487.966 1.188 0 2.395-.417 3.487-.966 1.103-.555 2.164-1.284 3.077-1.995a30.602 30.602 0 0 0 3.1-2.786l.048-.05.013-.014.005-.006L21 12zm0 0 .731.682a1 1 0 0 0 0-1.365L21 12z" fill="#637381"/>
</svg>
