<svg width="64" height="64" viewBox="0 0 64 64" fill="none" xmlns="http://www.w3.org/2000/svg">
<rect width="64" height="64" rx="32" fill="#F31111"/>
<path d="M39.1795 30.9743H33.0257V24.8205C33.0257 24.2541 32.5665 23.7949 32.0001 23.7949C31.4336 23.7949 30.9744 24.2541 30.9744 24.8205V30.9743H24.8206C24.2541 30.9743 23.7949 31.4335 23.7949 32C23.7949 32.5664 24.2541 33.0256 24.8206 33.0256H30.9744V39.1795C30.9744 39.7459 31.4336 40.2051 32.0001 40.2051C32.5665 40.2051 33.0257 39.7459 33.0257 39.1795V33.0256H39.1795C39.746 33.0256 40.2052 32.5664 40.2052 32C40.2052 31.4335 39.746 30.9743 39.1795 30.9743Z" fill="white"/>
</svg>
