<svg width="24" height="24" viewBox="0 0 24 24" fill="none" xmlns="http://www.w3.org/2000/svg">
<path d="M5 12C5 12.5523 4.55228 13 4 13C3.44772 13 3 12.5523 3 12C3 11.4477 3.44772 11 4 11C4.55228 11 5 11.4477 5 12Z" fill="#637381"/>
<path d="M7 11.94C7 11.4209 7.42085 11 7.94 11H20.06C20.5791 11 21 11.4209 21 11.94V12.06C21 12.5791 20.5791 13 20.06 13H7.94C7.42085 13 7 12.5791 7 12.06V11.94Z" fill="#637381"/>
<path d="M3 16.94C3 16.4209 3.42085 16 3.94 16H20.06C20.5791 16 21 16.4209 21 16.94V17.06C21 17.5791 20.5791 18 20.06 18H3.94C3.42085 18 3 17.5791 3 17.06V16.94Z" fill="#637381"/>
<path d="M3 6.94C3 6.42085 3.42085 6 3.94 6H20.06C20.5791 6 21 6.42085 21 6.94V7.06C21 7.57915 20.5791 8 20.06 8H3.94C3.42085 8 3 7.57915 3 7.06V6.94Z" fill="#637381"/>
</svg>
