<svg width="24" height="24" viewBox="0 0 24 24" fill="none" xmlns="http://www.w3.org/2000/svg">
    <path d="M11.051 5.807c.399-.743 1.5-.743 1.898 0l1.502 2.798 3.186.606c.814.155 1.143 1.108.588 1.704l-2.259 2.427.415 3.247c.105.818-.775 1.418-1.538 1.05L12 16.27l-2.843 1.37c-.763.368-1.643-.232-1.538-1.05l.415-3.247-2.259-2.427c-.555-.596-.226-1.549.589-1.704l3.185-.606 1.502-2.798z" fill="#637381"/>
    <path opacity=".32" fill-rule="evenodd" clip-rule="evenodd" d="M1.5 12c0 5.799 4.701 10.5 10.5 10.5S22.5 17.799 22.5 12 17.799 1.5 12 1.5 1.5 6.201 1.5 12zm11.45-6.193c-.4-.743-1.5-.743-1.899 0L9.549 8.605l-3.185.606c-.815.155-1.144 1.108-.589 1.704l2.259 2.427-.415 3.247c-.105.818.775 1.418 1.538 1.05L12 16.27l2.843 1.37c.763.368 1.643-.232 1.538-1.05l-.415-3.247 2.259-2.427c.555-.596.226-1.549-.588-1.704l-3.186-.606-1.502-2.798z" fill="#637381"/>
</svg>
