<svg width="24" height="24" viewBox="0 0 24 24" fill="none" xmlns="http://www.w3.org/2000/svg">
    <path fill-rule="evenodd" clip-rule="evenodd" d="M4.411 13.5a29.395 29.395 0 0 0 2.253 1.96c.854.665 1.801 1.311 2.748 1.787.959.482 1.843.753 2.588.753.745 0 1.63-.27 2.588-.753.947-.476 1.894-1.122 2.748-1.786a28.597 28.597 0 0 0 2.253-1.961 28.597 28.597 0 0 0-2.253-1.96c-.854-.665-1.801-1.311-2.748-1.787C13.629 9.27 12.745 9 12 9c-.745 0-1.63.27-2.588.753-.947.476-1.894 1.122-2.748 1.786A28.578 28.578 0 0 0 4.411 13.5zM21 13.5c.731-.682.73-.682.73-.683l-.005-.005-.013-.014-.048-.051a28.352 28.352 0 0 0-.837-.83 30.593 30.593 0 0 0-2.263-1.956c-.913-.711-1.974-1.44-3.077-1.995C14.395 7.416 13.187 7 12 7c-1.188 0-2.395.417-3.487.966C7.41 8.521 6.35 9.25 5.436 9.961a30.586 30.586 0 0 0-3.1 2.786l-.048.05-.013.014-.004.005H2.27c0 .001-.001.002.73.684l-.731-.682a1 1 0 0 0 0 1.364L3 13.5l-.731.682.002.002.004.005.013.014.048.05.18.185a30.592 30.592 0 0 0 2.92 2.602c.914.71 1.974 1.439 3.077 1.994 1.092.55 2.3.966 3.487.966 1.188 0 2.395-.417 3.487-.966 1.103-.555 2.164-1.284 3.077-1.995a30.6 30.6 0 0 0 3.1-2.786l.048-.05.013-.014.005-.006L21 13.5zm0 0 .731.682a1 1 0 0 0 0-1.365L21 13.5z" fill="#637381"/>
    <path fill-rule="evenodd" clip-rule="evenodd" d="M12 11.5a2 2 0 1 0 0 4 2 2 0 0 0 0-4zm-4 2a4 4 0 1 1 8 0 4 4 0 0 1-8 0zM13 3v3h-2V3h2zM4.207 4.793l2 2-1.414 1.414-2-2 1.414-1.414zM19.793 4.793l-2 2 1.414 1.414 2-2-1.414-1.414z" fill="#637381"/>
</svg>
