<svg width="24" height="24" viewBox="0 0 24 24" fill="none" xmlns="http://www.w3.org/2000/svg">
    <path opacity=".32" fill-rule="evenodd" clip-rule="evenodd" d="M4.123 2.244C5.318 2.12 7.305 2 10.5 2s5.182.12 6.377.244c1.02.105 1.763.861 1.88 1.88C18.88 5.188 19 6.794 19 9c0 2.207-.12 3.812-.243 4.876-.117 1.019-.86 1.775-1.88 1.88-1.055.109-2.728.216-5.306.24-.4.003-.784.163-1.064.448l-1.691 1.714c-.734.745-2.004.313-2.13-.725L6.55 16.34a.505.505 0 0 0-.475-.44c-.81-.042-1.451-.093-1.952-.145-1.02-.104-1.764-.861-1.881-1.88C2.12 12.812 2 11.206 2 9c0-2.207.12-3.812.243-4.876.117-1.019.86-1.775 1.88-1.88zM7 6a1 1 0 1 0 0 2h7a1 1 0 1 0 0-2H7zm0 4.5a1 1 0 1 0 0 2h4a1 1 0 1 0 0-2H7z" fill="#637381"/>
    <path d="M5.999 7a1 1 0 0 1 1-1h7a1 1 0 1 1 0 2h-7a1 1 0 0 1-1-1zM5.999 11.5a1 1 0 0 1 1-1h4a1 1 0 1 1 0 2h-4a1 1 0 0 1-1-1zM10.026 16.93l.48-.486c.28-.285.665-.445 1.064-.449 2.578-.023 4.251-.13 5.306-.239 1.02-.105 1.763-.861 1.88-1.88.08-.695.16-1.621.205-2.795.506.03.905.065 1.216.1.626.07 1.084.522 1.162 1.147.082.653.16 1.671.16 3.172 0 1.5-.078 2.52-.16 3.172a1.287 1.287 0 0 1-1.162 1.147c-.418.047-.996.095-1.78.13a.505.505 0 0 0-.475.404l-.17.866a.75.75 0 0 1-1.232.417L15.07 20.36a1.523 1.523 0 0 0-.971-.377c-1.315-.032-2.2-.098-2.778-.163a1.288 1.288 0 0 1-1.163-1.147c-.052-.42-.104-.99-.133-1.741z" fill="#637381"/>
</svg>
